<svg width="70.000000" height="60.000000" viewBox="0 0 70 60" fill="none" xmlns="http://www.w3.org/2000/svg" xmlns:xlink="http://www.w3.org/1999/xlink">
	<desc>
			Created with Pixso.
	</desc>
	<defs>
		<clipPath id="clip22_4875">
			<rect id="clarity:airplane-line" rx="12.000000" width="70.000000" height="60.000000" fill="white" fill-opacity="0"/>
		</clipPath>
		<linearGradient x1="69.999969" y1="-0.000008" x2="-0.000019" y2="57.500004" id="paint_linear_22_4873_0" gradientUnits="userSpaceOnUse">
			<stop stop-color="#0B32FF"/>
			<stop offset="1.000000" stop-color="#BC2FFF"/>
		</linearGradient>
	
	</defs>
	<rect id="clarity:airplane-line" rx="12.000000" width="70.000000" height="60.000000" fill="url(#paint_linear_22_4873_0)" fill-opacity="1.000000"/>
	<g clip-path="url(#clip22_4875)">
		<path id="Vector" d="M52.77 20.16C52.69 19.67 52.47 19.22 52.13 18.86C51.79 18.5 51.35 18.26 50.87 18.16L45 16.87C44.37 16.73 43.71 16.73 43.08 16.86C42.45 17 41.86 17.27 41.35 17.66L24 30.3L19.14 30.1C18.74 30.08 18.36 30.19 18.03 30.41C17.71 30.63 17.46 30.94 17.33 31.31C17.19 31.67 17.17 32.07 17.28 32.45C17.38 32.83 17.6 33.16 17.91 33.41L22.91 37.34C23.51 38.07 23.91 37.93 33.84 32.52L34.77 41.94C34.78 42.19 34.87 42.44 35.02 42.65C35.17 42.86 35.38 43.02 35.62 43.12C35.79 43.18 35.97 43.22 36.16 43.22C36.53 43.2 36.88 43.06 37.16 42.81L39.55 40.63C39.78 40.4 39.94 40.11 40 39.8L42.2 27.9C45.77 25.9 49.15 24.02 51.56 22.65C51.99 22.4 52.33 22.03 52.55 21.59C52.77 21.14 52.84 20.64 52.77 20.16ZM50.57 20.91C48.07 22.33 44.57 24.32 40.81 26.38L40.4 26.61L38.07 39.28L36.59 40.62L35.5 29.32L34.16 30C27 34 24.61 35.16 23.79 35.52L19.49 32.11L24.57 32.33L42.57 19.27C42.85 19.05 43.17 18.9 43.52 18.83C43.86 18.75 44.22 18.75 44.57 18.82L50.42 20.08C50.51 20.09 50.59 20.14 50.65 20.2C50.71 20.27 50.75 20.35 50.77 20.45C50.79 20.53 50.78 20.63 50.74 20.71C50.71 20.79 50.64 20.86 50.57 20.91Z" fill="#FFFFFF" fill-opacity="1.000000" fill-rule="nonzero"/>
		<path id="Vector" d="M24 24.54L27.55 25.54L29.2 24.35L25.2 23.19L27 22.09L32.47 21.93L34.77 20.26L27 20.5C26.75 20.48 26.51 20.54 26.29 20.67L23.66 22.2C23.45 22.32 23.27 22.51 23.16 22.74C23.05 22.97 23.01 23.22 23.05 23.48C23.09 23.73 23.19 23.96 23.36 24.15C23.53 24.34 23.75 24.47 24 24.54Z" fill="#FFFFFF" fill-opacity="1.000000" fill-rule="nonzero"/>
	</g>
</svg>

