<svg viewBox="0 0 24 24" xmlns="http://www.w3.org/2000/svg" xmlns:xlink="http://www.w3.org/1999/xlink" width="24.000000" height="24.000000" fill="none">
	<rect id="material-symbols:weight-outline" width="24.000000" height="24.000000" x="0.000000" y="0.000000" fill="rgb(255,255,255)" fill-opacity="0" />
	<path id="Vector" d="M6 19L18 19L16.575 9L7.425 9L6 19ZM12 7C12.2833 7 12.521 6.904 12.713 6.712C12.905 6.52 13.0007 6.28267 13 6C13 5.71667 12.904 5.47933 12.712 5.288C12.52 5.09667 12.2827 5.00067 12 5C11.7167 5 11.4793 5.096 11.288 5.288C11.0967 5.48 11.0007 5.71733 11 6C11 6.28333 11.096 6.521 11.288 6.713C11.48 6.905 11.7173 7.00067 12 7ZM14.825 7L16.575 7C17.075 7 17.5083 7.16667 17.875 7.5C18.2417 7.83333 18.4667 8.24167 18.55 8.725L19.975 18.725C20.0583 19.325 19.9043 19.8543 19.513 20.313C19.1217 20.7717 18.6173 21.0007 18 21L6 21C5.38333 21 4.879 20.771 4.487 20.313C4.095 19.855 3.941 19.3257 4.025 18.725L5.45 8.725C5.53333 8.24167 5.75833 7.83333 6.125 7.5C6.49166 7.16667 6.925 7 7.425 7L9.175 7C9.125 6.83333 9.08333 6.671 9.05 6.513C9.01666 6.355 9 6.184 9 6C9 5.16667 9.29166 4.45833 9.875 3.875C10.4583 3.29167 11.1667 3 12 3C12.8333 3 13.5417 3.29167 14.125 3.875C14.7083 4.45833 15 5.16667 15 6C15 6.18333 14.9833 6.35433 14.95 6.513C14.9167 6.67167 14.875 6.834 14.825 7Z" fill="rgb(156.188,156.188,156.188)" fill-rule="nonzero" />
</svg>
