<svg width="70.000000" height="60.000000" viewBox="0 0 70 60" fill="none" xmlns="http://www.w3.org/2000/svg" xmlns:xlink="http://www.w3.org/1999/xlink">
	<desc>
			Created with Pixso.
	</desc>
	<defs>
		<clipPath id="clip22_4875">
			<rect id="clarity:airplane-line" rx="12.000000" width="70.000000" height="60.000000" transform="translate(0.000000 -0.500000)" fill="white" fill-opacity="0"/>
		</clipPath>
	</defs>
	<rect id="clarity:airplane-line" rx="12.000000" width="70.000000" height="60.000000" transform="translate(0.000000 -0.500000)" fill="#F1F1F1" fill-opacity="1.000000"/>
	<g clip-path="url(#clip22_4875)">
		<path id="Vector" d="M52.77 19.66C52.69 19.17 52.47 18.72 52.13 18.36C51.79 18 51.35 17.76 50.87 17.66L45 16.37C44.37 16.23 43.71 16.23 43.08 16.36C42.45 16.5 41.86 16.77 41.35 17.16L24 29.8L19.14 29.6C18.74 29.58 18.36 29.69 18.03 29.91C17.71 30.13 17.46 30.44 17.33 30.81C17.19 31.17 17.17 31.57 17.28 31.95C17.38 32.33 17.6 32.66 17.91 32.91L22.91 36.84C23.51 37.57 23.91 37.43 33.84 32.02L34.77 41.44C34.78 41.69 34.87 41.94 35.02 42.15C35.17 42.36 35.38 42.52 35.62 42.62C35.79 42.68 35.97 42.72 36.16 42.72C36.53 42.7 36.88 42.56 37.16 42.31L39.55 40.13C39.78 39.9 39.94 39.61 40 39.3L42.2 27.4C45.77 25.4 49.15 23.52 51.56 22.15C51.99 21.9 52.33 21.53 52.55 21.09C52.77 20.64 52.84 20.14 52.77 19.66ZM50.57 20.41C48.07 21.83 44.57 23.82 40.81 25.88L40.4 26.11L38.07 38.78L36.59 40.12L35.5 28.82L34.16 29.5C27 33.5 24.61 34.66 23.79 35.02L19.49 31.61L24.57 31.83L42.57 18.77C42.85 18.55 43.17 18.4 43.52 18.33C43.86 18.25 44.22 18.25 44.57 18.32L50.42 19.58C50.51 19.59 50.59 19.64 50.65 19.7C50.71 19.77 50.75 19.85 50.77 19.95C50.79 20.03 50.78 20.13 50.74 20.21C50.71 20.29 50.64 20.36 50.57 20.41Z" fill="#000000" fill-opacity="1.000000" fill-rule="nonzero"/>
		<path id="Vector" d="M24 24.04L27.55 25.04L29.2 23.85L25.2 22.69L27 21.59L32.47 21.43L34.77 19.76L27 20C26.75 19.98 26.51 20.04 26.29 20.17L23.66 21.7C23.45 21.82 23.27 22.01 23.16 22.24C23.05 22.47 23.01 22.72 23.05 22.98C23.09 23.23 23.19 23.46 23.36 23.65C23.53 23.84 23.75 23.97 24 24.04Z" fill="#000000" fill-opacity="1.000000" fill-rule="nonzero"/>
	</g>
</svg>
