<svg viewBox="0 0 24 24" xmlns="http://www.w3.org/2000/svg" xmlns:xlink="http://www.w3.org/1999/xlink" width="24.000000" height="24.000000" fill="none">
	<rect id="material-symbols:severe-cold-rounded" width="24.000000" height="24.000000" x="0.000000" y="0.000000" fill="rgb(255,255,255)" fill-opacity="0" />
	<path id="Vector" d="M20 10C19.7167 10 19.4793 9.904 19.288 9.712C19.0967 9.52 19.0007 9.28267 19 9C19 8.71667 19.096 8.47933 19.288 8.288C19.48 8.09667 19.7173 8.00067 20 8C20.2833 8 20.521 8.096 20.713 8.288C20.905 8.48 21.0007 8.71733 21 9C21 9.28333 20.904 9.521 20.712 9.713C20.52 9.905 20.2827 10.0007 20 10ZM10 18.4L8.075 20.325C7.89167 20.5083 7.66267 20.6 7.388 20.6C7.11333 20.6 6.884 20.5 6.7 20.3C6.5 20.1167 6.4 19.8877 6.4 19.613C6.4 19.3383 6.5 19.1007 6.7 18.9L10 15.6L10 14L8.4 14L5.075 17.325C4.89167 17.5083 4.66267 17.6 4.388 17.6C4.11333 17.6 3.884 17.5 3.7 17.3C3.5 17.1167 3.4 16.8877 3.4 16.613C3.4 16.3383 3.5 16.1007 3.7 15.9L5.6 14L2.975 14C2.69167 14 2.45833 13.904 2.275 13.712C2.09167 13.52 2 13.2827 2 13C2 12.7167 2.096 12.4793 2.288 12.288C2.48 12.0967 2.71733 12.0007 3 12L5.6 12L3.675 10.1C3.49167 9.91667 3.4 9.68767 3.4 9.413C3.4 9.13833 3.5 8.90067 3.7 8.7C3.88333 8.51667 4.11267 8.425 4.388 8.425C4.66333 8.425 4.90067 8.51667 5.1 8.7L8.4 12L10 12L10 10.4L6.675 7.1C6.49167 6.91667 6.4 6.68767 6.4 6.413C6.4 6.13833 6.5 5.90067 6.7 5.7C6.88333 5.51667 7.11267 5.425 7.388 5.425C7.66333 5.425 7.90067 5.51667 8.1 5.7L10 7.6L10 5C10 4.71667 10.096 4.47933 10.288 4.288C10.48 4.09667 10.7173 4.00067 11 4C11.2833 4 11.521 4.096 11.713 4.288C11.905 4.48 12.0007 4.71733 12 5L12 7.6L13.9 5.7C14.0833 5.51667 14.3127 5.425 14.588 5.425C14.8633 5.425 15.1007 5.51667 15.3 5.7C15.4833 5.9 15.575 6.13733 15.575 6.412C15.575 6.68667 15.4833 6.916 15.3 7.1L12 10.4L12 12L19 12C19.2833 12 19.521 12.096 19.713 12.288C19.905 12.48 20.0007 12.7173 20 13C20 13.2833 19.904 13.521 19.712 13.713C19.52 13.905 19.2827 14.0007 19 14L16.4 14L18.3 15.925C18.4833 16.1083 18.575 16.3377 18.575 16.613C18.575 16.8883 18.4833 17.1173 18.3 17.3C18.1 17.5 17.8627 17.6 17.588 17.6C17.3133 17.6 17.084 17.5 16.9 17.3L13.6 14L12 14L12 15.6L15.3 18.925C15.4833 19.1083 15.575 19.3377 15.575 19.613C15.575 19.8883 15.4833 20.1173 15.3 20.3C15.1 20.5 14.8627 20.6 14.588 20.6C14.3133 20.6 14.084 20.5 13.9 20.3L12 18.4L12 21.025C12 21.3083 11.904 21.5417 11.712 21.725C11.52 21.9083 11.2827 22 11 22C10.7167 22 10.4793 21.904 10.288 21.712C10.0967 21.52 10.0007 21.2827 10 21L10 18.4ZM20 7C19.7167 7 19.4793 6.90433 19.288 6.713C19.0967 6.52167 19.0007 6.284 19 6L19 3C19 2.71667 19.096 2.47933 19.288 2.288C19.48 2.09667 19.7173 2.00067 20 2C20.2833 2 20.521 2.096 20.713 2.288C20.905 2.48 21.0007 2.71733 21 3L21 6.025C21 6.30833 20.904 6.54167 20.712 6.725C20.52 6.90833 20.2827 7 20 7Z" fill="rgb(156.188,156.188,156.188)" fill-rule="nonzero" />
</svg>
