<svg viewBox="0 0 24 24" xmlns="http://www.w3.org/2000/svg" xmlns:xlink="http://www.w3.org/1999/xlink" width="24.000000" height="24.000000" fill="none">
	<rect id="solar:tag-price-linear" width="24.000000" height="24.000000" x="0.000000" y="0.000000" fill="rgb(255,255,255)" fill-opacity="0" />
	<g id="Group">
		<path id="Vector" d="M2.123 12.816C1.835 11.813 2.081 10.748 2.573 8.619L2.856 7.391C3.269 5.599 3.476 4.703 4.089 4.089C4.703 3.476 5.599 3.269 7.391 2.856L8.619 2.572C10.749 2.081 11.813 1.835 12.816 2.122C13.819 2.41 14.591 3.183 16.136 4.728L17.966 6.558C20.657 9.248 22 10.592 22 12.262C22 13.933 20.656 15.277 17.967 17.966C15.277 20.656 13.933 22 12.262 22C10.592 22 9.247 20.656 6.558 17.967L4.728 16.137C3.183 14.591 2.41 13.819 2.123 12.816Z" fill-rule="nonzero" stroke="rgb(156.188,156.188,156.188)" stroke-width="1.5" />
		<path id="Vector" d="M15.39 15.39C15.975 14.803 16.054 13.933 15.566 13.444C15.078 12.956 14.207 13.035 13.621 13.621C13.036 14.207 12.165 14.286 11.677 13.798C11.189 13.31 11.268 12.439 11.854 11.854C12.185 11.522 12.607 11.354 13 11.357M14 15.86C14.454 15.954 14.989 15.79 15.389 15.389L15.743 15.743M11.5 11.5L11.854 11.854" fill-rule="nonzero" stroke="rgb(156.188,156.188,156.188)" stroke-linecap="round" stroke-width="1.5" />
		<path id="Vector" d="M2 4C0.895431 4 0 3.10457 0 2C0 0.89543 0.895431 0 2 0C3.10457 0 4 0.89543 4 2C4 3.10457 3.10457 4 2 4Z" stroke="rgb(156.188,156.188,156.188)" stroke-width="1.5" transform="matrix(0.707107,-0.707107,0.707107,0.707107,5.77856,8.87903)" />
	</g>
</svg>
