<svg viewBox="0 0 24 24" xmlns="http://www.w3.org/2000/svg" xmlns:xlink="http://www.w3.org/1999/xlink" width="24.000000" height="24.000000" fill="none">
	<rect id="material-symbols:linear-scale" width="24.000000" height="24.000000" x="0.000000" y="0.000000" fill="rgb(255,255,255)" fill-opacity="0" />
	<path id="Vector" d="M17 17C15.8 17 14.7417 16.621 13.825 15.863C12.9083 15.105 12.3333 14.1507 12.1 13L6.8 13C6.6 13.45 6.29167 13.8127 5.875 14.088C5.45833 14.3633 5 14.5007 4.5 14.5C3.8 14.5 3.20833 14.2583 2.725 13.775C2.24167 13.2917 2 12.7 2 12C2 11.3 2.24167 10.7083 2.725 10.225C3.20833 9.74167 3.8 9.5 4.5 9.5C5 9.5 5.45833 9.63767 5.875 9.913C6.29167 10.1883 6.6 10.5507 6.8 11L12.1 11C12.3333 9.85 12.9083 8.89567 13.825 8.137C14.7417 7.37833 15.8 6.99933 17 7C18.3833 7 19.5627 7.48767 20.538 8.463C21.5133 9.43833 22.0007 10.6173 22 12C22 13.3833 21.5123 14.5627 20.537 15.538C19.5617 16.5133 18.3827 17.0007 17 17ZM17 15C17.8333 15 18.5417 14.7083 19.125 14.125C19.7083 13.5417 20 12.8333 20 12C20 11.1667 19.7083 10.4583 19.125 9.875C18.5417 9.29167 17.8333 9 17 9C16.1667 9 15.4583 9.29167 14.875 9.875C14.2917 10.4583 14 11.1667 14 12C14 12.8333 14.2917 13.5417 14.875 14.125C15.4583 14.7083 16.1667 15 17 15Z" fill="rgb(156.188,156.188,156.188)" fill-rule="nonzero" />
</svg>
