<svg viewBox="0 0 18 18" xmlns="http://www.w3.org/2000/svg" xmlns:xlink="http://www.w3.org/1999/xlink" width="18.000000" height="18.000000" fill="none">
	<rect id="streamline:ecology-science-erlenmeyer-flask-experiment-lab-flask-science-chemistry-solution" width="18.000000" height="18.000000" x="0.000000" y="0.000000" fill="rgb(255,255,255)" fill-opacity="0" />
	<path id="Vector" d="M11.5714 0.642883L11.5714 8.35717L16.1872 14.2329C16.412 14.5174 16.5521 14.8596 16.5913 15.2201C16.6305 15.5806 16.5673 15.9448 16.4088 16.271C16.2504 16.5972 16.0033 16.8722 15.6957 17.0643C15.3881 17.2564 15.0327 17.3579 14.67 17.3572L3.33002 17.3572C2.96739 17.3579 2.61189 17.2564 2.30432 17.0643C1.99676 16.8722 1.74959 16.5972 1.59119 16.271C1.43278 15.9448 1.36956 15.5806 1.40877 15.2201C1.44798 14.8596 1.58804 14.5174 1.81288 14.2329L6.42859 8.35717L6.42859 0.642883M4.50002 0.642883L13.5 0.642883" fill-rule="nonzero" stroke="rgb(156.188,156.188,156.188)" stroke-linecap="round" stroke-linejoin="round" stroke-width="2" />
</svg>
