<svg width="19.000000" height="17.000000" viewBox="0 0 19 17" fill="none" xmlns="http://www.w3.org/2000/svg" xmlns:xlink="http://www.w3.org/1999/xlink">
	<desc>
			Created with Pixso.
	</desc>
	<defs/>
	<path id="Vector" d="M6.6 0.1C6.6 -0.06 6.53 -0.22 6.42 -0.33C6.31 -0.44 6.15 -0.5 6 -0.5C5.84 -0.5 5.68 -0.44 5.57 -0.33C5.46 -0.22 5.4 -0.06 5.4 0.1L5.4 1.3L4.2 1.3C3.56 1.3 2.95 1.55 2.5 2C2.05 2.45 1.8 3.06 1.8 3.7L1.8 7.3L0.6 7.3L0.6 4.3C0.6 4.14 0.53 3.98 0.42 3.87C0.31 3.76 0.15 3.7 0 3.7C-0.16 3.7 -0.32 3.76 -0.43 3.87C-0.54 3.98 -0.6 4.14 -0.6 4.3L-0.6 11.5C-0.6 11.65 -0.54 11.81 -0.43 11.92C-0.32 12.03 -0.16 12.1 0 12.1C0.15 12.1 0.31 12.03 0.42 11.92C0.53 11.81 0.6 11.65 0.6 11.5L0.6 8.5L1.8 8.5L1.8 11.95C1.8 12.59 2.05 13.2 2.5 13.65L5.4 16.54C5.62 16.77 5.93 16.89 6.24 16.9L12.82 16.9C13.05 16.89 13.27 16.83 13.45 16.72C13.64 16.6 13.8 16.43 13.9 16.23L14.77 14.5L16.2 14.5C16.83 14.5 17.44 14.24 17.89 13.79C18.34 13.34 18.6 12.73 18.6 12.1L18.6 6.1C18.6 5.46 18.34 4.85 17.89 4.4C17.44 3.95 16.83 3.7 16.2 3.7L14.77 3.7L13.9 1.96C13.8 1.76 13.64 1.59 13.45 1.47C13.27 1.36 13.05 1.3 12.82 1.3L10.2 1.3L10.2 0.1C10.2 -0.06 10.13 -0.22 10.02 -0.33C9.91 -0.44 9.75 -0.5 9.6 -0.5C9.44 -0.5 9.28 -0.44 9.17 -0.33C9.06 -0.22 9 -0.06 9 0.1L9 1.3L6.6 1.3L6.6 0.1ZM4.2 2.5L12.82 2.5L13.69 4.23C13.79 4.43 13.95 4.6 14.14 4.72C14.32 4.83 14.54 4.89 14.77 4.89L16.2 4.89C16.51 4.89 16.82 5.02 17.04 5.25C17.27 5.47 17.4 5.78 17.4 6.1L17.4 12.1C17.4 12.41 17.27 12.72 17.04 12.94C16.82 13.17 16.51 13.3 16.2 13.3L14.77 13.3C14.54 13.3 14.32 13.36 14.14 13.47C13.95 13.59 13.79 13.76 13.69 13.96L12.82 15.7L6.24 15.7L3.35 12.8C3.12 12.57 3 12.27 3 11.95L3 3.7C3 3.38 3.12 3.07 3.35 2.85C3.57 2.62 3.88 2.5 4.2 2.5ZM6 4.89C6.15 4.89 6.31 4.96 6.42 5.07C6.53 5.18 6.6 5.34 6.6 5.5L6.6 8.5C6.6 8.81 6.72 9.12 6.95 9.34C7.17 9.57 7.48 9.7 7.8 9.7L9 9.7L9 5.5C9 5.34 9.06 5.18 9.17 5.07C9.28 4.96 9.44 4.89 9.6 4.89C9.75 4.89 9.91 4.96 10.02 5.07C10.13 5.18 10.2 5.34 10.2 5.5L10.2 9.7L14.4 9.7C14.55 9.7 14.71 9.76 14.82 9.87C14.93 9.98 15 10.14 15 10.3C15 10.45 14.93 10.61 14.82 10.72C14.71 10.83 14.55 10.9 14.4 10.9L7.8 10.9C7.16 10.9 6.55 10.64 6.1 10.19C5.65 9.74 5.4 9.13 5.4 8.5L5.4 5.5C5.4 5.34 5.46 5.18 5.57 5.07C5.68 4.96 5.84 4.89 6 4.89Z" fill="#9C9C9C" fill-opacity="1.000000" fill-rule="nonzero"/>
</svg>
