<svg viewBox="0 0 24 24" xmlns="http://www.w3.org/2000/svg" xmlns:xlink="http://www.w3.org/1999/xlink" width="24.000000" height="24.000000" fill="none">
	<rect id="fluent:engine-20-regular" width="24.000000" height="24.000000" x="0.000000" y="0.000000" fill="rgb(255,255,255)" fill-opacity="0" />
	<path id="Vector" d="M9.60003 3.6C9.60003 3.44087 9.53681 3.28826 9.42429 3.17574C9.31177 3.06321 9.15915 3 9.00002 3C8.84089 3 8.68828 3.06321 8.57576 3.17574C8.46324 3.28826 8.40002 3.44087 8.40002 3.6L8.40002 4.8L7.20002 4.8C6.56351 4.8 5.95306 5.05286 5.50297 5.50294C5.05288 5.95303 4.80002 6.56348 4.80002 7.2L4.80002 10.8L3.60002 10.8L3.60002 7.8C3.60002 7.64087 3.53681 7.48826 3.42429 7.37574C3.31177 7.26321 3.15915 7.2 3.00002 7.2C2.84089 7.2 2.68828 7.26321 2.57576 7.37574C2.46324 7.48826 2.40002 7.64087 2.40002 7.8L2.40002 15C2.40002 15.1591 2.46324 15.3117 2.57576 15.4243C2.68828 15.5368 2.84089 15.6 3.00002 15.6C3.15915 15.6 3.31177 15.5368 3.42429 15.4243C3.53681 15.3117 3.60002 15.1591 3.60002 15L3.60002 12L4.80002 12L4.80002 15.4548C4.80016 16.0913 5.05311 16.7016 5.50322 17.1516L8.40002 20.0484C8.62502 20.2735 8.93019 20.3999 9.24842 20.4L15.8292 20.4C16.052 20.3999 16.2704 20.3377 16.4599 20.2205C16.6493 20.1033 16.8024 19.9357 16.902 19.7364L17.772 18L19.2 18C19.8365 18 20.447 17.7471 20.8971 17.2971C21.3472 16.847 21.6 16.2365 21.6 15.6L21.6 9.6C21.6 8.96348 21.3472 8.35303 20.8971 7.90294C20.447 7.45286 19.8365 7.2 19.2 7.2L17.7708 7.2L16.902 5.4636C16.8024 5.2643 16.6493 5.09667 16.4599 4.97946C16.2704 4.86226 16.052 4.80012 15.8292 4.8L13.2 4.8L13.2 3.6C13.2 3.44087 13.1368 3.28826 13.0243 3.17574C12.9118 3.06321 12.7592 3 12.6 3C12.4409 3 12.2883 3.06321 12.1758 3.17574C12.0632 3.28826 12 3.44087 12 3.6L12 4.8L9.60003 4.8L9.60003 3.6ZM7.20002 6L15.8292 6L16.698 7.7364C16.7976 7.9357 16.9507 8.10333 17.1402 8.22054C17.3297 8.33774 17.548 8.39988 17.7708 8.4L19.2 8.4C19.5183 8.4 19.8235 8.52643 20.0486 8.75147C20.2736 8.97651 20.4 9.28174 20.4 9.6L20.4 15.6C20.4 15.9183 20.2736 16.2235 20.0486 16.4485C19.8235 16.6736 19.5183 16.8 19.2 16.8L17.7708 16.8C17.548 16.8001 17.3297 16.8623 17.1402 16.9795C16.9507 17.0967 16.7976 17.2643 16.698 17.4636L15.828 19.2L9.24842 19.2L6.35162 16.3032C6.12657 16.0782 6.00009 15.773 6.00002 15.4548L6.00002 7.2C6.00002 6.88174 6.12645 6.57652 6.3515 6.35147C6.57654 6.12643 6.88176 6 7.20002 6ZM9.00002 8.4C9.15915 8.4 9.31177 8.46321 9.42429 8.57574C9.53681 8.68826 9.60003 8.84087 9.60003 9L9.60003 12C9.60003 12.3183 9.72645 12.6235 9.9515 12.8485C10.1765 13.0736 10.4818 13.2 10.8 13.2L12 13.2L12 9C12 8.84087 12.0632 8.68826 12.1758 8.57574C12.2883 8.46321 12.4409 8.4 12.6 8.4C12.7592 8.4 12.9118 8.46321 13.0243 8.57574C13.1368 8.68826 13.2 8.84087 13.2 9L13.2 13.2L17.4 13.2C17.5592 13.2 17.7118 13.2632 17.8243 13.3757C17.9368 13.4883 18 13.6409 18 13.8C18 13.9591 17.9368 14.1117 17.8243 14.2243C17.7118 14.3368 17.5592 14.4 17.4 14.4L10.8 14.4C10.1635 14.4 9.55306 14.1471 9.10297 13.6971C8.65288 13.247 8.40002 12.6365 8.40002 12L8.40002 9C8.40002 8.84087 8.46324 8.68826 8.57576 8.57574C8.68828 8.46321 8.84089 8.4 9.00002 8.4Z" fill="rgb(156.188,156.188,156.188)" fill-rule="nonzero" />
</svg>
