<svg width="70.000000" height="82.500000" viewBox="0 0 70 82.5" fill="none" xmlns="http://www.w3.org/2000/svg" xmlns:xlink="http://www.w3.org/1999/xlink">
	<desc>
			Created with Pixso.
	</desc>
	<defs>
		<linearGradient x1="35.000000" y1="0.000000" x2="35.000000" y2="82.500000" id="paint_linear_22_4863_0" gradientUnits="userSpaceOnUse">
			<stop stop-color="#0BD3FF"/>
			<stop offset="0.475000" stop-color="#BA33EA"/>
			<stop offset="1.000000" stop-color="#FF862F"/>
		</linearGradient>
	</defs>
	<path id="Vector 1" d="M35.38 40.99C30.53 43.62 20.48 51.04 19.02 59.66C17.57 68.29 24.48 78.48 28.11 82.5C18.16 81.08 -1.38 73.07 0.07 52.36C0.49 48.43 2.99 43.9 4.14 42.09C8.13 35.81 14.44 31.99 16.17 30.64C18.33 28.94 35.03 17.22 28.63 0C34.83 2.09 47.81 9.26 50.09 21.21C51.68 28.75 50.29 33.29 49.4 34.62C50.81 34.03 54.14 31.94 56.15 28.34C61.2 32.05 71.02 43.08 69.91 57.54C68.52 75.62 44.73 82.5 41.87 82.5C44 79.21 47.72 71.29 45.5 65.86C44.55 63.82 45.07 63.48 41.87 60.51C38.67 57.54 30.62 48.71 35.38 40.99Z" fill="url(#paint_linear_22_4863_0)" fill-opacity="1.000000" fill-rule="evenodd"/>
</svg>
