<svg viewBox="0 0 24 24" xmlns="http://www.w3.org/2000/svg" xmlns:xlink="http://www.w3.org/1999/xlink" width="24.000000" height="24.000000" fill="none">
	<rect id="circum:temp-high" width="24.000000" height="24.000000" x="0.000000" y="0.000000" fill="rgb(255,255,255)" fill-opacity="0" />
	<path id="Vector" d="M14.863 13.4L14.863 4.93898C14.857 4.17895 14.5558 3.45103 14.023 2.90898C13.7318 2.62041 13.382 2.39783 12.9972 2.25635C12.6125 2.11487 12.2018 2.05779 11.793 2.08898C11.053 2.16143 10.3677 2.51081 9.87447 3.06714C9.38119 3.62347 9.11635 4.34564 9.133 5.08898L9.143 13.369C8.41082 13.9189 7.853 14.6685 7.53657 15.5278C7.22014 16.3871 7.15855 17.3195 7.3592 18.2129C7.55986 19.1064 8.01422 19.9229 8.6677 20.5644C9.32118 21.2058 10.146 21.6449 11.043 21.829C11.3562 21.8886 11.6742 21.9188 11.993 21.919C13.2538 21.9192 14.4631 21.4192 15.3556 20.5286C16.248 19.6381 16.7506 18.4298 16.753 17.169C16.7545 16.4367 16.5843 15.7143 16.2561 15.0598C15.9278 14.4052 15.4507 13.8368 14.863 13.4ZM14.383 20.06C13.9487 20.4155 13.4407 20.67 12.8959 20.8049C12.3511 20.9398 11.783 20.9518 11.233 20.84C10.503 20.6946 9.83385 20.3324 9.31292 19.8008C8.79198 19.2692 8.4435 18.5928 8.313 17.86C8.183 17.1727 8.24806 16.4628 8.50079 15.8107C8.75353 15.1585 9.18384 14.5901 9.743 14.17C9.86349 14.0809 9.96149 13.9649 10.0292 13.8312C10.0969 13.6975 10.1325 13.5498 10.133 13.4L10.133 5.08898C10.1215 4.60029 10.2922 4.12481 10.612 3.75511C10.9318 3.38541 11.3778 3.14795 11.863 3.08898C11.9092 3.08068 11.9561 3.07732 12.003 3.07898C12.4948 3.08367 12.9652 3.28114 13.313 3.62894C13.6608 3.97675 13.8583 4.44713 13.863 4.93898L13.863 13.4C13.8635 13.5498 13.8991 13.6975 13.9668 13.8312C14.0345 13.9649 14.1325 14.0809 14.253 14.17C14.7075 14.5101 15.0786 14.9491 15.3383 15.4539C15.598 15.9586 15.7395 16.5158 15.752 17.0833C15.7645 17.6508 15.6478 18.2137 15.4106 18.7294C15.1734 19.2452 14.822 19.7001 14.383 20.06Z" fill="rgb(156.188,156.188,156.188)" fill-rule="nonzero" />
	<path id="Vector" d="M13.893 17.169C13.893 17.6703 13.6939 18.151 13.3394 18.5055C12.985 18.8599 12.5043 19.059 12.003 19.059C11.5017 19.059 11.021 18.8599 10.6666 18.5055C10.3121 18.151 10.113 17.6703 10.113 17.169C10.1104 16.7557 10.2456 16.3533 10.4974 16.0255C10.7491 15.6976 11.103 15.4631 11.503 15.359L11.503 5.40002C11.503 5.26742 11.5557 5.14024 11.6494 5.04647C11.7432 4.9527 11.8704 4.90002 12.003 4.90002C12.1356 4.90002 12.2628 4.9527 12.3566 5.04647C12.4503 5.14024 12.503 5.26742 12.503 5.40002L12.503 15.36C12.9019 15.4658 13.2546 15.7006 13.506 16.0278C13.7575 16.3551 13.8935 16.7563 13.893 17.169Z" fill="rgb(156.188,156.188,156.188)" fill-rule="nonzero" />
</svg>
