<svg viewBox="0 0 24 24" xmlns="http://www.w3.org/2000/svg" xmlns:xlink="http://www.w3.org/1999/xlink" width="24.000000" height="24.000000" fill="none">
	<rect id="iconoir:gas-tank-droplet" width="24.000000" height="24.000000" x="0.000000" y="0.000000" fill="rgb(255,255,255)" fill-opacity="0" />
	<g id="Group">
		<path id="Vector" d="M3.19512 6.58133C3.32393 6.27043 3.51274 5.98796 3.75075 5.75004C3.98876 5.51212 4.27131 5.32343 4.58226 5.19473C4.89321 5.06604 5.22647 4.99987 5.563 5L7 5L7 3L12 3L12 5L14.002 5C15.858 5 17.638 5.73729 18.9503 7.04967C20.2627 8.36205 21 10.142 21 11.998L21 18.44C21 18.7765 20.9337 19.1098 20.8049 19.4207C20.6761 19.7316 20.4873 20.014 20.2493 20.252C20.0112 20.4899 19.7287 20.6786 19.4177 20.8073C19.1068 20.936 18.7735 21.0021 18.437 21.002L5.563 21.002C4.88359 21.0015 4.23214 20.7314 3.75162 20.2511C3.27111 19.7708 3.00079 19.1194 3 18.44L3 7.562C3 7.22547 3.0663 6.89224 3.19512 6.58133Z" fill-rule="evenodd" stroke="rgb(156.188,156.188,156.188)" stroke-linecap="round" stroke-linejoin="round" stroke-width="1.49300003" />
		<path id="Vector" d="M15 13.887C15 15.542 13.655 16.887 12 16.887C10.344 16.887 9.012 15.542 9 13.887C9.01 11.992 12 9 12 9C12 9 15 11.993 15 13.887Z" fill-rule="evenodd" stroke="rgb(156.188,156.188,156.188)" stroke-linecap="round" stroke-linejoin="round" stroke-width="1.5" />
	</g>
</svg>
