<svg width="70.000000" height="60.000000" viewBox="0 0 70 60" fill="none" xmlns="http://www.w3.org/2000/svg" xmlns:xlink="http://www.w3.org/1999/xlink">
	<desc>
			Created with Pixso.
	</desc>
	<defs>
		<clipPath id="clip191_24">
			<rect id="svg" width="37.000000" height="28.000000" transform="translate(17.000000 16.500002)" fill="white" fill-opacity="0"/>
		</clipPath>
		<clipPath id="clip6_175">
			<rect id="clarity:airplane-line" rx="12.000000" width="70.000000" height="60.000000" transform="translate(0.000000 0.000002)" fill="white" fill-opacity="0"/>
		</clipPath>
	</defs>
	<rect id="clarity:airplane-line" rx="12.000000" width="70.000000" height="60.000000" transform="translate(0.000000 0.000002)" fill="#F1F1F1" fill-opacity="1.000000"/>
	<g clip-path="url(#clip6_175)">
		<g clip-path="url(#clip191_24)">
			<path id="path" d="M53.82 39.66C53.59 39.34 53.23 39.34 52.99 39.66L50.95 42.63L45.45 42.63L45.45 39.06L50.12 39.06C50.57 39.06 51.01 39 51.43 38.89C51.86 38.77 52.21 38.46 52.5 37.93C52.74 37.52 52.87 36.95 52.87 36.18C52.87 35.65 52.76 35 52.56 34.18L50.79 28.17C50.22 26.32 49.48 25.02 48.56 24.3C47.65 23.56 46.68 23.21 45.67 23.21L38.59 23.21L38.59 18.42L40.66 18.42C40.78 18.71 40.93 18.9 41.09 18.98C41.25 19.07 41.39 19.11 41.51 19.11L51.47 19.11C51.79 19.11 52.03 18.98 52.19 18.72C52.35 18.47 52.46 18.16 52.5 17.81C52.5 17.51 52.42 17.22 52.26 16.94C52.09 16.64 51.83 16.5 51.47 16.5L41.88 16.5C41.44 16.5 41.15 16.58 41 16.72C40.86 16.87 40.74 17.05 40.66 17.29L34.99 17.29C34.91 17.17 34.82 17.02 34.71 16.85C34.62 16.67 34.42 16.59 34.14 16.59L24.07 16.59C23.91 16.59 23.72 16.69 23.48 16.89C23.27 17.1 23.15 17.43 23.15 17.9C23.15 18.35 23.27 18.71 23.48 18.94C23.72 19.18 23.89 19.29 24.01 19.29L34.14 19.29C34.22 19.29 34.35 19.24 34.53 19.16C34.71 19.07 34.86 18.85 34.99 18.5L37.12 18.5L37.12 23.21L24.38 23.21C24.09 22.22 23.63 21.39 23 20.72C22.37 20.05 21.65 19.72 20.84 19.72C19.78 19.72 18.88 20.26 18.12 21.33C17.37 22.4 17 23.7 17 25.21C17 26.72 17.37 28 18.12 29.04C18.88 30.1 19.78 30.61 20.84 30.61C22.05 30.61 23.01 29.98 23.7 28.69L32 33.14L33.1 37.05C33.26 37.52 33.47 37.96 33.74 38.41C34 38.84 34.56 39.06 35.42 39.06L39.11 39.06L39.11 42.63L33.1 42.63C32.77 42.63 32.51 43.01 32.51 43.47C32.51 43.93 32.77 44.3 33.1 44.3L51.23 44.3C51.41 44.3 51.56 44.16 51.66 43.96L53.82 40.84C54.05 40.52 54.05 39.99 53.82 39.66ZM47.07 25.65C47.59 25.87 48.05 26.24 48.44 26.73C48.83 27.23 49.18 28 49.51 29.04C49.59 29.39 49.69 29.77 49.81 30.18C49.93 30.58 50.06 31.01 50.18 31.48L47.07 31.48L47.07 25.65ZM20.14 26.61C20.43 26.9 20.75 27.13 21.08 27.29L22.31 28C21.85 28.46 21.36 28.69 20.84 28.69C20.14 28.69 19.55 28.36 19.06 27.69C18.58 27.03 18.34 26.2 18.34 25.21C18.34 24.22 18.58 23.39 19.06 22.73C19.55 22.06 20.14 21.73 20.84 21.73C21.69 21.73 22.36 22.22 22.85 23.21L21.14 23.21C20.74 23.21 20.39 23.37 20.1 23.73C19.82 24.08 19.68 24.57 19.68 25.21C19.68 25.85 19.83 26.31 20.14 26.61ZM42.8 25.39L45.54 25.39L45.54 31.4L42.8 31.4L42.8 25.39ZM38.59 25.47L41.27 25.47L41.27 31.48L38.59 31.48L38.59 25.47ZM40.08 39.06L44.48 39.06L44.48 42.63L40.08 42.63L40.08 39.06Z" fill="#000000" fill-opacity="1.000000" fill-rule="nonzero"/>
		</g>
	</g>
</svg>
