<svg width="71" height="84" viewBox="0 0 71 84" fill="none" xmlns="http://www.w3.org/2000/svg">
<path d="M19.5288 60.4182C20.9827 51.7948 31.0385 44.3765 35.8847 41.7454C31.125 49.4691 39.1731 58.2963 42.3751 61.267C45.577 64.2377 45.0578 64.5772 46.0097 66.6142C48.2251 72.0463 44.5097 79.9681 42.3751 83.25C45.2308 83.25 69.029 76.375 70.4136 58.2963C71.5213 43.8333 61.702 32.805 56.654 29.0988C54.6463 32.6975 51.3174 34.7855 49.9039 35.3796C50.7982 34.0499 52.1885 29.5062 50.5962 21.9691C48.3116 10.0185 35.3366 2.84362 29.1346 0.75C35.5385 17.9799 18.8365 29.6929 16.673 31.3904C14.9423 32.7485 8.63465 36.5679 4.64414 42.8488C3.49742 44.6536 0.992208 49.1806 0.576829 53.1188C-0.877022 73.8287 18.6634 81.8354 28.6154 83.25C24.9808 79.2325 18.075 69.0417 19.5288 60.4182Z" fill="url(#paint0_linear_22_4863)"/>
<defs>
<linearGradient id="paint0_linear_22_4863" x1="35.5" y1="0.75" x2="35.5" y2="83.25" gradientUnits="userSpaceOnUse">
<stop stop-color="#0BD3FF"/>
<stop offset="0.475" stop-color="#BA33EA"/>
<stop offset="1" stop-color="#FF862F"/>
</linearGradient>
</defs>
</svg>




