<svg viewBox="0 0 24.2883 24.2883" xmlns="http://www.w3.org/2000/svg" xmlns:xlink="http://www.w3.org/1999/xlink" width="24.288269" height="24.288269" fill="none">
	<rect id="ic:round-line-weight" width="24.288288" height="24.288288" x="0.000000" y="0.000000" fill="rgb(255,255,255)" fill-opacity="0" />
	<path id="Vector" d="M19.3407 14.9905L4.9476 14.9905C4.45284 14.9905 4.04803 15.4174 4.04803 15.9392C4.04803 16.461 4.45284 16.888 4.9476 16.888L19.3407 16.888C19.8354 16.888 20.2402 16.461 20.2402 15.9392C20.2402 15.4174 19.8354 14.9905 19.3407 14.9905ZM19.3407 10.2466L4.9476 10.2466C4.45284 10.2466 4.04803 10.6736 4.04803 11.1954L4.04803 12.1442C4.04803 12.666 4.45284 13.0929 4.9476 13.0929L19.3407 13.0929C19.8354 13.0929 20.2402 12.666 20.2402 12.1442L20.2402 11.1954C20.2402 10.6736 19.8354 10.2466 19.3407 10.2466ZM19.3407 4.55408L4.9476 4.55408C4.45284 4.55408 4.04803 4.98102 4.04803 5.50284L4.04803 7.40036C4.04803 7.92218 4.45284 8.34912 4.9476 8.34912L19.3407 8.34912C19.8354 8.34912 20.2402 7.92218 20.2402 7.40036L20.2402 5.50284C20.2402 4.98102 19.8354 4.55408 19.3407 4.55408ZM19.7904 18.7855L4.49782 18.7855C4.24594 18.7855 4.04803 18.9942 4.04803 19.2599C4.04803 19.5255 4.24594 19.7343 4.49782 19.7343L19.7904 19.7343C20.0423 19.7343 20.2402 19.5255 20.2402 19.2599C20.2402 18.9942 20.0423 18.7855 19.7904 18.7855Z" fill="rgb(156.188,156.188,156.188)" fill-rule="nonzero" />
</svg>
