<svg viewBox="0 0 24 24" xmlns="http://www.w3.org/2000/svg" xmlns:xlink="http://www.w3.org/1999/xlink" width="24.000000" height="24.000000" fill="none">
	<rect id="uil:slider-h-range" width="24.000000" height="24.000000" x="0.000000" y="0.000000" fill="rgb(255,255,255)" fill-opacity="0" />
	<path id="Vector" d="M21 11L19.816 11C19.6124 10.4154 19.2318 9.90874 18.7273 9.5502C18.2227 9.19165 17.619 8.99902 17 8.99902C16.381 8.99902 15.7773 9.19165 15.2727 9.5502C14.7682 9.90874 14.3876 10.4154 14.184 11L9.816 11C9.61235 10.4154 9.23185 9.90874 8.72725 9.5502C8.22266 9.19165 7.619 8.99902 7 8.99902C6.381 8.99902 5.77734 9.19165 5.27275 9.5502C4.76815 9.90874 4.38765 10.4154 4.184 11L3 11C2.73478 11 2.48043 11.1053 2.29289 11.2929C2.10536 11.4804 2 11.7348 2 12C2 12.2652 2.10536 12.5195 2.29289 12.7071C2.48043 12.8946 2.73478 13 3 13L4.184 13C4.38765 13.5845 4.76815 14.0912 5.27275 14.4497C5.77734 14.8083 6.381 15.0009 7 15.0009C7.619 15.0009 8.22266 14.8083 8.72725 14.4497C9.23185 14.0912 9.61235 13.5845 9.816 13L14.184 13C14.3876 13.5845 14.7682 14.0912 15.2727 14.4497C15.7773 14.8083 16.381 15.0009 17 15.0009C17.619 15.0009 18.2227 14.8083 18.7273 14.4497C19.2318 14.0912 19.6124 13.5845 19.816 13L21 13C21.2652 13 21.5196 12.8946 21.7071 12.7071C21.8946 12.5195 22 12.2652 22 12C22 11.7348 21.8946 11.4804 21.7071 11.2929C21.5196 11.1053 21.2652 11 21 11ZM7 13C6.80222 13 6.60888 12.9413 6.44443 12.8314C6.27998 12.7216 6.15181 12.5654 6.07612 12.3827C6.00043 12.1999 5.98063 11.9989 6.01921 11.8049C6.0578 11.6109 6.15304 11.4327 6.29289 11.2929C6.43275 11.153 6.61093 11.0578 6.80491 11.0192C6.99889 10.9806 7.19996 11.0004 7.38268 11.0761C7.56541 11.1518 7.72159 11.2799 7.83147 11.4444C7.94135 11.6088 8 11.8022 8 12C7.99974 12.2651 7.89429 12.5193 7.70681 12.7068C7.51934 12.8943 7.26514 12.9997 7 13ZM17 13C16.8022 13 16.6089 12.9413 16.4444 12.8314C16.28 12.7216 16.1518 12.5654 16.0761 12.3827C16.0004 12.1999 15.9806 11.9989 16.0192 11.8049C16.0578 11.6109 16.153 11.4327 16.2929 11.2929C16.4327 11.153 16.6109 11.0578 16.8049 11.0192C16.9989 10.9806 17.2 11.0004 17.3827 11.0761C17.5654 11.1518 17.7216 11.2799 17.8315 11.4444C17.9414 11.6088 18 11.8022 18 12C17.9997 12.2651 17.8943 12.5193 17.7068 12.7068C17.5193 12.8943 17.2651 12.9997 17 13Z" fill="rgb(156.188,156.188,156.188)" fill-rule="nonzero" />
</svg>
