<svg width="70.000000" height="60.000000" viewBox="0 0 70 60" fill="none" xmlns="http://www.w3.org/2000/svg" xmlns:xlink="http://www.w3.org/1999/xlink">
	<desc>
			Created with Pixso.
	</desc>
	<defs>
		<clipPath id="clip22_4873">
			<rect id="material-symbols-light:rocket-launch-outline-rounded" rx="12.000000" width="70.000000" height="60.000000" fill="white" fill-opacity="0"/>
		</clipPath>
		<linearGradient x1="69.999969" y1="-0.000008" x2="-0.000019" y2="57.500004" id="paint_linear_22_4873_0" gradientUnits="userSpaceOnUse">
			<stop stop-color="#0B32FF"/>
			<stop offset="1.000000" stop-color="#BC2FFF"/>
		</linearGradient>
	</defs>
	<rect id="material-symbols-light:rocket-launch-outline-rounded" rx="12.000000" width="70.000000" height="60.000000" fill="url(#paint_linear_22_4873_0)" fill-opacity="1.000000"/>
	<g clip-path="url(#clip22_4873)">
		<path id="Vector" d="M28.3 30.29C28.77 29.36 29.27 28.46 29.82 27.6C30.37 26.74 30.97 25.9 31.64 25.07L29.33 24.6C29.18 24.56 29.03 24.57 28.89 24.62C28.74 24.67 28.61 24.75 28.5 24.86L24.86 28.5C24.8 28.56 24.78 28.63 24.8 28.7C24.82 28.78 24.87 28.84 24.94 28.88L28.3 30.29ZM45.48 19.08C43.17 19.25 41.14 19.75 39.38 20.6C37.63 21.45 35.98 22.65 34.43 24.2C33.32 25.31 32.35 26.46 31.53 27.66C30.7 28.86 30.02 30.06 29.49 31.24L33.73 35.48C34.92 34.94 36.12 34.26 37.33 33.44C38.54 32.61 39.7 31.65 40.8 30.54C42.35 28.99 43.55 27.34 44.4 25.6C45.25 23.86 45.76 21.83 45.92 19.52C45.92 19.46 45.92 19.4 45.91 19.35C45.9 19.3 45.87 19.25 45.81 19.19C45.76 19.13 45.7 19.1 45.65 19.09C45.6 19.09 45.54 19.08 45.48 19.08ZM37.46 27.53C37.02 27.09 36.8 26.56 36.8 25.95C36.8 25.33 37.02 24.8 37.46 24.36C37.9 23.92 38.43 23.7 39.05 23.7C39.67 23.7 40.2 23.92 40.64 24.36C41.08 24.8 41.3 25.33 41.3 25.95C41.3 26.57 41.08 27.09 40.64 27.53C40.2 27.97 39.67 28.19 39.05 28.19C38.43 28.19 37.9 27.97 37.46 27.53ZM34.69 36.69L36.1 40.06C36.14 40.14 36.19 40.18 36.27 40.19C36.35 40.2 36.42 40.18 36.47 40.12L40.11 36.51C40.23 36.39 40.31 36.26 40.36 36.12C40.41 35.97 40.41 35.82 40.37 35.67L39.9 33.37C39.08 34.03 38.24 34.63 37.38 35.18C36.51 35.72 35.62 36.23 34.69 36.69ZM47.36 18.86C47.35 21.36 46.87 23.67 45.94 25.78C45 27.89 43.6 29.88 41.75 31.73C41.65 31.83 41.56 31.92 41.48 31.99C41.39 32.07 41.3 32.16 41.2 32.25L41.84 35.36C41.92 35.76 41.9 36.15 41.78 36.53C41.66 36.91 41.45 37.25 41.15 37.54L36.98 41.72C36.68 42.01 36.32 42.12 35.89 42.05C35.46 41.97 35.16 41.73 35 41.32L33.2 37.09L27.89 31.74L23.65 29.94C23.25 29.78 23.01 29.49 22.94 29.06C22.87 28.63 22.98 28.27 23.28 27.97L27.46 23.79C27.75 23.5 28.09 23.3 28.47 23.19C28.85 23.07 29.24 23.06 29.65 23.14L32.75 23.77C32.85 23.68 32.93 23.59 33 23.52C33.06 23.44 33.15 23.35 33.24 23.26C35.1 21.4 37.08 20 39.19 19.05C41.31 18.11 43.61 17.63 46.11 17.62C46.27 17.62 46.43 17.65 46.58 17.71C46.74 17.77 46.88 17.87 47.01 18C47.14 18.13 47.23 18.26 47.28 18.41C47.33 18.55 47.35 18.7 47.36 18.86ZM24.72 36.01C25.31 35.43 26.02 35.14 26.86 35.14C27.7 35.15 28.41 35.45 29 36.03C29.59 36.62 29.88 37.33 29.87 38.17C29.87 39.01 29.58 39.73 28.99 40.31C28.16 41.15 27.17 41.67 26.05 41.89C24.92 42.1 23.78 42.26 22.63 42.37C22.74 41.2 22.91 40.06 23.13 38.94C23.36 37.82 23.89 36.85 24.72 36.01ZM25.79 37.1C25.35 37.55 25.04 38.07 24.87 38.67C24.69 39.27 24.57 39.89 24.49 40.54C25.13 40.46 25.75 40.33 26.35 40.15C26.95 39.97 27.48 39.66 27.92 39.21C28.22 38.91 28.37 38.56 28.38 38.14C28.39 37.72 28.24 37.37 27.94 37.07C27.64 36.77 27.28 36.62 26.86 36.64C26.45 36.65 26.09 36.8 25.79 37.1Z" fill="#FFFFFF" fill-opacity="1.000000" fill-rule="nonzero"/>
	</g>
</svg>
