<svg width="25.000000" height="24.000000" viewBox="0 0 25 24" fill="none" xmlns="http://www.w3.org/2000/svg" xmlns:xlink="http://www.w3.org/1999/xlink">
	<desc>
			Created with Pixso.
	</desc>
	<defs/>
	<path id="Vector" d="M5.3 11.79C5.77 10.86 6.27 9.96 6.82 9.1C7.37 8.24 7.97 7.39 8.64 6.57L6.33 6.1C6.18 6.06 6.03 6.07 5.89 6.12C5.74 6.17 5.61 6.25 5.5 6.36L1.86 10C1.8 10.06 1.78 10.13 1.8 10.2C1.82 10.28 1.87 10.34 1.94 10.38L5.3 11.79ZM22.48 0.58C20.17 0.75 18.14 1.25 16.38 2.1C14.63 2.95 12.98 4.15 11.43 5.7C10.32 6.81 9.35 7.96 8.53 9.16C7.7 10.36 7.02 11.56 6.49 12.74L10.73 16.98C11.92 16.44 13.12 15.76 14.33 14.94C15.54 14.11 16.7 13.15 17.8 12.04C19.35 10.49 20.55 8.84 21.4 7.1C22.25 5.36 22.76 3.33 22.92 1.02C22.92 0.96 22.92 0.9 22.91 0.85C22.9 0.8 22.87 0.75 22.81 0.69C22.76 0.63 22.7 0.6 22.65 0.59C22.6 0.58 22.54 0.58 22.48 0.58ZM14.46 9.03C14.02 8.59 13.8 8.06 13.8 7.45C13.8 6.83 14.02 6.3 14.46 5.86C14.9 5.42 15.43 5.2 16.05 5.2C16.67 5.2 17.2 5.42 17.64 5.86C18.08 6.3 18.3 6.83 18.3 7.45C18.3 8.06 18.08 8.59 17.64 9.03C17.2 9.47 16.67 9.69 16.05 9.69C15.43 9.69 14.9 9.47 14.46 9.03ZM11.69 18.19L13.1 21.56C13.14 21.64 13.19 21.68 13.27 21.69C13.35 21.7 13.42 21.68 13.47 21.62L17.11 18.01C17.23 17.89 17.31 17.76 17.36 17.62C17.41 17.47 17.41 17.32 17.37 17.17L16.9 14.87C16.08 15.53 15.24 16.13 14.38 16.68C13.51 17.22 12.62 17.73 11.69 18.19ZM24.36 0.36C24.35 2.86 23.87 5.17 22.94 7.28C22 9.39 20.6 11.38 18.75 13.23C18.65 13.33 18.56 13.42 18.48 13.49C18.39 13.57 18.3 13.66 18.2 13.75L18.84 16.86C18.92 17.26 18.9 17.65 18.78 18.03C18.66 18.41 18.45 18.75 18.15 19.04L13.98 23.22C13.68 23.51 13.32 23.62 12.89 23.55C12.46 23.47 12.16 23.23 12 22.82L10.2 18.59L4.89 13.24L0.65 11.44C0.25 11.28 0.01 10.99 -0.06 10.56C-0.13 10.13 -0.02 9.77 0.28 9.47L4.46 5.29C4.75 5 5.09 4.8 5.47 4.68C5.85 4.57 6.24 4.56 6.65 4.64L9.75 5.27C9.85 5.18 9.93 5.09 10 5.01C10.06 4.94 10.15 4.85 10.24 4.76C12.1 2.9 14.08 1.5 16.19 0.55C18.31 -0.39 20.61 -0.87 23.11 -0.88C23.27 -0.88 23.43 -0.85 23.58 -0.79C23.74 -0.73 23.88 -0.63 24.01 -0.5C24.14 -0.37 24.23 -0.24 24.28 -0.09C24.33 0.05 24.35 0.2 24.36 0.36ZM1.72 17.51C2.31 16.93 3.02 16.64 3.86 16.64C4.7 16.65 5.41 16.95 6 17.53C6.59 18.12 6.88 18.83 6.87 19.67C6.87 20.51 6.58 21.23 5.99 21.81C5.16 22.65 4.17 23.17 3.05 23.39C1.92 23.6 0.78 23.76 -0.37 23.87C-0.26 22.7 -0.09 21.56 0.13 20.44C0.36 19.32 0.89 18.35 1.72 17.51ZM2.79 18.6C2.35 19.05 2.04 19.57 1.87 20.17C1.69 20.77 1.57 21.39 1.49 22.04C2.13 21.96 2.75 21.83 3.35 21.65C3.95 21.47 4.48 21.16 4.92 20.71C5.22 20.41 5.37 20.06 5.38 19.64C5.39 19.22 5.24 18.87 4.94 18.57C4.64 18.27 4.28 18.12 3.86 18.14C3.45 18.15 3.09 18.3 2.79 18.6Z" fill="#FFFFFF" fill-opacity="1.000000" fill-rule="nonzero"/>
</svg>
