<svg viewBox="0 0 24 24" xmlns="http://www.w3.org/2000/svg" xmlns:xlink="http://www.w3.org/1999/xlink" width="24.000000" height="24.000000" fill="none">
	<rect id="lets-icons:pressure-light" width="24.000000" height="24.000000" x="0.000000" y="0.000000" fill="rgb(255,255,255)" fill-opacity="0" />
	<g id="Group">
		<path id="Vector" d="M20.693 17.33C21.0505 15.9965 21.0965 14.5986 20.8273 13.2445C20.5581 11.8904 19.9809 10.6164 19.1406 9.52105C18.3002 8.42568 17.2191 7.53834 15.9809 6.92768C14.7427 6.31701 13.3806 5.99939 12 5.99939C10.6194 5.99939 9.25731 6.31701 8.01911 6.92768C6.78092 7.53834 5.69981 8.42568 4.85943 9.52105C4.01905 10.6164 3.44194 11.8904 3.17274 13.2445C2.90355 14.5986 2.94949 15.9965 3.307 17.33" fill-rule="nonzero" stroke="rgb(156.188,156.188,156.188)" stroke-linecap="round" stroke-width="1" />
		<path id="Vector" d="M12 17.999C11.09 18.625 9.95698 18.557 9.46998 17.848C8.94998 17.092 7.15598 12.841 6.06698 10.211C5.86198 9.71595 6.46698 9.29995 6.85698 9.66895C8.92098 11.629 12.247 14.826 12.766 15.582C13.253 16.292 12.91 17.374 12 17.999Z" fill-rule="nonzero" stroke="rgb(156.188,156.188,156.188)" stroke-width="1" />
		<path id="Vector" d="M12 6L12 8M5.63601 8.636L7.05001 10.05M18.364 8.636L16.95 10.05M20.693 17.33L18.762 16.812M3.30701 17.33L5.23801 16.812" fill-rule="nonzero" stroke="rgb(156.188,156.188,156.188)" stroke-linecap="round" stroke-width="1" />
	</g>
</svg>
